<svg width="90" height="90" viewBox="0 0 90 90" fill="none" xmlns="http://www.w3.org/2000/svg">
<path d="M83.6859 60.0328C83.4221 59.7285 83.096 59.4843 82.7297 59.3169C82.3633 59.1495 81.9653 59.0628 81.5625 59.0625H75.9375V53.4375C75.9375 50.3381 73.4147 47.8125 70.3125 47.8125H59.0625C55.9603 47.8125 53.4375 50.3381 53.4375 53.4375V59.0625H47.8125C47.4094 59.0624 47.011 59.1491 46.6442 59.3165C46.2775 59.4838 45.9511 59.7281 45.687 60.0327C45.4229 60.3373 45.2274 60.6951 45.1138 61.0819C45.0001 61.4687 44.9709 61.8753 45.0281 62.2744L47.8406 81.9619C47.9367 82.6318 48.2712 83.2446 48.7826 83.6879C49.2941 84.1311 49.9482 84.3751 50.625 84.375H78.75C79.4268 84.3751 80.0809 84.1311 80.5924 83.6879C81.1038 83.2446 81.4383 82.6318 81.5344 81.9619L84.3469 62.2744C84.4038 61.8752 84.3743 61.4684 84.2603 61.0817C84.1462 60.6949 83.9503 60.3372 83.6859 60.0328ZM59.0625 53.4375H70.3125V59.0625H59.0625V53.4375ZM76.3116 78.75H53.0634L51.0553 64.6875H78.3197L76.3116 78.75ZM28.125 56.25H33.75V84.375H28.125V56.25Z" fill="#474747"/>
<path d="M47.1938 50.2734L41.8331 43.5684L37.7775 33.4294C37.1544 31.8611 36.0739 30.5166 34.6765 29.5706C33.2791 28.6246 31.6294 28.1209 29.9419 28.125H14.0625C9.41062 28.125 5.625 31.9106 5.625 36.5625V56.25C5.625 59.3522 8.14781 61.875 11.25 61.875H14.0625V84.375H19.6875V56.25H11.25V36.5625C11.25 35.8166 11.5463 35.1012 12.0738 34.5738C12.6012 34.0463 13.3166 33.75 14.0625 33.75H29.9419C31.0978 33.75 32.1244 34.4447 32.5519 35.5191L37.1784 46.7578L42.8034 53.7891L47.1938 50.2734ZM11.25 14.0625C11.25 7.85812 16.2956 2.8125 22.5 2.8125C28.7044 2.8125 33.75 7.85812 33.75 14.0625C33.75 20.2669 28.7044 25.3125 22.5 25.3125C16.2956 25.3125 11.25 20.2669 11.25 14.0625ZM16.875 14.0625C16.875 17.1647 19.3978 19.6875 22.5 19.6875C25.6022 19.6875 28.125 17.1647 28.125 14.0625C28.125 10.9603 25.6022 8.4375 22.5 8.4375C19.3978 8.4375 16.875 10.9603 16.875 14.0625Z" fill="#474747"/>
</svg>
