<svg width="76" height="84" viewBox="0 0 76 84" fill="none" xmlns="http://www.w3.org/2000/svg">
<path d="M75.5 60.75C75.5 62.3333 74.625 63.7083 73.2917 64.4166L40.375 82.9166C39.7084 83.4166 38.875 83.6666 38 83.6666C37.125 83.6666 36.2917 83.4166 35.625 82.9166L2.70836 64.4166C2.04006 64.066 1.48077 63.5387 1.09139 62.8922C0.702011 62.2456 0.497466 61.5047 0.500024 60.75V23.25C0.500024 21.6666 1.37502 20.2916 2.70836 19.5833L35.625 1.08331C36.2917 0.583313 37.125 0.333313 38 0.333313C38.875 0.333313 39.7084 0.583313 40.375 1.08331L73.2917 19.5833C74.625 20.2916 75.5 21.6666 75.5 23.25V60.75ZM8.83336 29.5V54.5H14.0417V46.1666H17.1667C19.3768 46.1666 21.4964 45.2887 23.0592 43.7259C24.622 42.1631 25.5 40.0434 25.5 37.8333C25.5 35.6232 24.622 33.5036 23.0592 31.9408C21.4964 30.378 19.3768 29.5 17.1667 29.5H8.83336ZM14.0417 42V33.6666H16.125C17.2301 33.6666 18.2899 34.1056 19.0713 34.887C19.8527 35.6684 20.2917 36.7282 20.2917 37.8333C20.2917 38.9384 19.8527 39.9982 19.0713 40.7796C18.2899 41.561 17.2301 42 16.125 42H14.0417ZM28.625 29.5V54.5H33.8334V46.1666H36.9584L39.7084 54.5H45.2084L41.9167 44.5416C43.9584 43.0416 45.2917 40.5833 45.2917 37.8333C45.2917 35.6232 44.4137 33.5036 42.8509 31.9408C41.2881 30.378 39.1685 29.5 36.9584 29.5H28.625ZM33.8334 42V33.6666H35.9167C37.0218 33.6666 38.0816 34.1056 38.863 34.887C39.6444 35.6684 40.0834 36.7282 40.0834 37.8333C40.0834 38.9384 39.6444 39.9982 38.863 40.7796C38.0816 41.561 37.0218 42 35.9167 42H33.8334ZM58.8334 29.5C53.0834 29.5 48.4167 35.0833 48.4167 42C48.4167 48.9166 53.0834 54.5 58.8334 54.5C64.5834 54.5 69.25 48.9166 69.25 42C69.25 35.0833 64.5834 29.5 58.8334 29.5ZM58.8334 34.7083C62 34.7083 64.5834 37.9583 64.5834 42C64.5834 46.0416 62 49.2916 58.8334 49.2916C55.6667 49.2916 53.125 46.0416 53.125 42C53.125 37.9583 55.6667 34.7083 58.8334 34.7083Z" fill="#474747"/>
</svg>
