<svg width="74" height="74" viewBox="0 0 74 74" fill="none" xmlns="http://www.w3.org/2000/svg">
<path d="M63.8877 61.2514C63.8877 62.674 62.5237 63.8877 61.101 63.8877H21.193C20.4693 63.8706 19.7806 63.5724 19.2727 63.0564C18.7649 62.5404 18.4779 61.847 18.4724 61.123V60.2174C18.4724 60.089 18.6044 58.274 19.7704 56.0777C21.7137 52.4587 25.34 49.87 30.521 48.0624C37.9644 45.5837 47.1017 44.073 53.1957 38.749C57.603 35.0017 58.8717 29.135 59 23.448C61.2477 25.0614 63.8877 26.693 63.8877 29.828V61.2514ZM49.2284 23.448C49.2284 26.2934 49.1807 29.3147 47.1054 31.2507C42.1774 35.7937 33.6597 36.846 27.5437 38.8774C18.0837 41.983 13.4197 47.417 11.216 51.421C10.8274 52.1984 10.4387 52.9757 10.1784 53.753C10.1784 53.8814 10.1124 53.8814 10.1124 54.0097V29.9564C10.1124 27.111 12.2537 25.4317 12.6424 25.175L34.4077 10.9484C36.8717 9.26904 39.4604 10.9484 39.4604 10.9484L49.2284 17.3724V23.448ZM73.6667 60.7344V29.9564C73.6667 28.5337 73.278 21.424 66.6707 17.0277L61.4457 13.361V2.67637C61.4457 1.12537 59.935 0.333374 58.5124 0.333374H54.5524C52.9977 0.333374 51.6667 1.12537 51.6667 2.68004V6.89671L45.03 2.68004C41.015 0.0913745 34.668 -0.946292 29.0947 2.68004L7.32937 16.8994C6.03504 17.6767 0.333374 21.9447 0.333374 29.8317V60.6097C0.333374 63.5797 0.982374 66.0364 2.40504 68.1044C3.44271 69.791 4.99737 71.0817 6.81237 71.9837C8.84641 72.9452 11.0429 73.5161 13.2877 73.6667H60.8407C60.969 73.6667 64.0784 73.6667 67.3197 71.9837C69.1589 71.1327 70.7272 69.7903 71.8517 68.1044C73.0177 66.1684 73.6667 63.708 73.6667 60.7344Z" fill="#474747"/>
</svg>
