<svg width="69" height="76" viewBox="0 0 69 76" fill="none" xmlns="http://www.w3.org/2000/svg">
<path d="M67.9446 37.7113C67.9446 55.133 67.9446 63.8439 63.0736 69.2544C58.2026 74.665 50.3603 74.6687 34.6829 74.6687C19.0056 74.6687 11.1632 74.6687 6.29225 69.2544C1.42126 63.8476 1.42126 55.133 1.42126 37.7113C1.42126 20.2896 1.42126 11.5787 6.29225 6.16447C11.1632 0.75021 19.0056 0.753906 34.6829 0.753906C50.3603 0.753906 58.2026 0.753906 63.0736 6.16447C66.3111 9.76412 67.3976 14.8236 67.7598 22.9283" stroke="black" stroke-width="1.5" stroke-linecap="round"/>
<path d="M16.2041 22.9283C16.2041 21.2098 16.2041 20.3524 16.3926 19.6465C16.6446 18.7073 17.1392 17.8509 17.8269 17.1633C18.5145 16.4757 19.3709 15.9811 20.3101 15.729C21.0233 15.5369 21.8808 15.5369 23.5956 15.5369H45.77C47.4885 15.5369 48.3459 15.5369 49.0518 15.7253C49.991 15.9774 50.8474 16.472 51.535 17.1596C52.2227 17.8472 52.7173 18.7036 52.9693 19.6428C53.1615 20.3561 53.1615 21.2135 53.1615 22.9283C53.1615 24.6432 53.1615 25.5043 52.973 26.2102C52.721 27.1494 52.2264 28.0058 51.5387 28.6934C50.8511 29.381 49.9947 29.8756 49.0555 30.1276C48.3459 30.3198 47.4848 30.3198 45.77 30.3198H23.5956C21.8771 30.3198 21.0197 30.3198 20.3138 30.1313C19.3746 29.8793 18.5182 29.3847 17.8306 28.6971C17.1429 28.0095 16.6483 27.1531 16.3963 26.2139C16.2041 25.5006 16.2041 24.6432 16.2041 22.9283Z" stroke="black" stroke-width="1.5"/>
<path d="M19.8998 45.1027C21.9409 45.1027 23.5956 43.448 23.5956 41.4069C23.5956 39.3658 21.9409 37.7112 19.8998 37.7112C17.8587 37.7112 16.2041 39.3658 16.2041 41.4069C16.2041 43.448 17.8587 45.1027 19.8998 45.1027Z" fill="black"/>
<path d="M19.8998 59.8856C21.9409 59.8856 23.5956 58.231 23.5956 56.1899C23.5956 54.1488 21.9409 52.4941 19.8998 52.4941C17.8587 52.4941 16.2041 54.1488 16.2041 56.1899C16.2041 58.231 17.8587 59.8856 19.8998 59.8856Z" fill="black"/>
<path d="M34.6828 45.1027C36.7239 45.1027 38.3785 43.448 38.3785 41.4069C38.3785 39.3658 36.7239 37.7112 34.6828 37.7112C32.6417 37.7112 30.9871 39.3658 30.9871 41.4069C30.9871 43.448 32.6417 45.1027 34.6828 45.1027Z" fill="black"/>
<path d="M34.6828 59.8856C36.7239 59.8856 38.3785 58.231 38.3785 56.1899C38.3785 54.1488 36.7239 52.4941 34.6828 52.4941C32.6417 52.4941 30.9871 54.1488 30.9871 56.1899C30.9871 58.231 32.6417 59.8856 34.6828 59.8856Z" fill="black"/>
<path d="M49.4658 45.1027C51.5069 45.1027 53.1615 43.448 53.1615 41.4069C53.1615 39.3658 51.5069 37.7112 49.4658 37.7112C47.4247 37.7112 45.77 39.3658 45.77 41.4069C45.77 43.448 47.4247 45.1027 49.4658 45.1027Z" fill="black"/>
<path d="M49.4658 59.8856C51.5069 59.8856 53.1615 58.231 53.1615 56.1899C53.1615 54.1488 51.5069 52.4941 49.4658 52.4941C47.4247 52.4941 45.77 54.1488 45.77 56.1899C45.77 58.231 47.4247 59.8856 49.4658 59.8856Z" fill="black"/>
</svg>
