<svg width="15" height="15" viewBox="0 0 15 15" fill="none" xmlns="http://www.w3.org/2000/svg">
<path fill-rule="evenodd" clip-rule="evenodd" d="M7.5 0C3.35795 0 0 3.29402 0 7.35719C0 11.4204 3.35795 14.7144 7.5 14.7144C11.642 14.7144 15 11.4204 15 7.35719C15 3.29402 11.642 0 7.5 0ZM7.15909 3.34418C6.97826 3.34418 6.80484 3.41464 6.67697 3.54008C6.54911 3.66551 6.47727 3.83563 6.47727 4.01301C6.47727 4.1904 6.54911 4.36052 6.67697 4.48595C6.80484 4.61138 6.97826 4.68185 7.15909 4.68185H7.5C7.68083 4.68185 7.85425 4.61138 7.98212 4.48595C8.10998 4.36052 8.18182 4.1904 8.18182 4.01301C8.18182 3.83563 8.10998 3.66551 7.98212 3.54008C7.85425 3.41464 7.68083 3.34418 7.5 3.34418H7.15909ZM6.13636 6.01952C5.95553 6.01952 5.78211 6.08999 5.65425 6.21542C5.52638 6.34085 5.45455 6.51097 5.45455 6.68836C5.45455 6.86574 5.52638 7.03586 5.65425 7.16129C5.78211 7.28673 5.95553 7.35719 6.13636 7.35719H6.81818V9.3637H6.13636C5.95553 9.3637 5.78211 9.43417 5.65425 9.5596C5.52638 9.68503 5.45455 9.85515 5.45455 10.0325C5.45455 10.2099 5.52638 10.38 5.65425 10.5055C5.78211 10.6309 5.95553 10.7014 6.13636 10.7014H8.86364C9.04447 10.7014 9.21789 10.6309 9.34575 10.5055C9.47362 10.38 9.54545 10.2099 9.54545 10.0325C9.54545 9.85515 9.47362 9.68503 9.34575 9.5596C9.21789 9.43417 9.04447 9.3637 8.86364 9.3637H8.18182V6.68836C8.18182 6.51097 8.10998 6.34085 7.98212 6.21542C7.85425 6.08999 7.68083 6.01952 7.5 6.01952H6.13636Z" fill="#F8F8F8"/>
</svg>
