<svg width="800" height="800" viewBox="0 0 800 800" fill="none" xmlns="http://www.w3.org/2000/svg">
<g clip-path="url(#clip0_373_176)">
<path d="M683.016 117.332C526.902 -38.9736 273.639 -39.129 117.331 116.982C-38.9738 273.098 -39.1312 526.363 116.984 682.67C273.096 838.976 526.363 839.131 682.67 683.018C838.973 526.906 839.131 273.637 683.016 117.332ZM455.85 653.819C455.85 659.991 450.848 664.989 444.68 664.989H355.321C349.153 664.989 344.151 659.991 344.151 653.819V322.098C344.151 315.926 349.153 310.928 355.321 310.928H444.68C450.848 310.928 455.85 315.924 455.85 322.098V653.819ZM400.001 264.572C364.281 264.572 335.219 235.513 335.219 199.791C335.219 164.074 364.279 135.009 400.001 135.009C435.723 135.009 464.783 164.072 464.783 199.791C464.783 235.513 435.719 264.572 400.001 264.572Z" fill="#F3B04D"/>
</g>
<defs>
<clipPath id="clip0_373_176">
<rect width="800" height="800" fill="white"/>
</clipPath>
</defs>
</svg>
