<svg width="15" height="15" viewBox="0 0 15 15" fill="none" xmlns="http://www.w3.org/2000/svg">
<path fill-rule="evenodd" clip-rule="evenodd" d="M15 7.35719C15 11.4206 11.6423 14.7144 7.5 14.7144C3.35775 14.7144 0 11.4206 0 7.35719C0 3.29381 3.35775 0 7.5 0C11.6423 0 15 3.29381 15 7.35719ZM9.75 5.15003C9.75 5.73541 9.51295 6.29681 9.09099 6.71073C8.66903 7.12465 8.09674 7.35719 7.5 7.35719C6.90326 7.35719 6.33097 7.12465 5.90901 6.71073C5.48705 6.29681 5.25 5.73541 5.25 5.15003C5.25 4.56466 5.48705 4.00326 5.90901 3.58934C6.33097 3.17542 6.90326 2.94288 7.5 2.94288C8.09674 2.94288 8.66903 3.17542 9.09099 3.58934C9.51295 4.00326 9.75 4.56466 9.75 5.15003ZM7.5 13.6108C8.78721 13.6128 10.0446 13.2308 11.1052 12.5153C11.5582 12.21 11.7517 11.6288 11.4877 11.1557C10.9425 10.175 9.8175 9.56435 7.5 9.56435C5.1825 9.56435 4.0575 10.175 3.5115 11.1557C3.24825 11.6288 3.44175 12.21 3.89475 12.5153C4.9554 13.2308 6.21279 13.6128 7.5 13.6108Z" fill="#F8F8F8"/>
</svg>
