<svg width="31" height="31" viewBox="0 0 31 31" fill="none" xmlns="http://www.w3.org/2000/svg">
<path d="M28 27.524L21.672 21.3165M21.672 21.3165C22.6877 20.3201 23.4934 19.1373 24.043 17.8356C24.5927 16.5338 24.8756 15.1386 24.8756 13.7295C24.8756 12.3205 24.5927 10.9253 24.043 9.62353C23.4934 8.32176 22.6877 7.13894 21.672 6.14261C20.6563 5.14628 19.4506 4.35595 18.1235 3.81674C16.7965 3.27753 15.3742 3 13.9378 3C12.5014 3 11.0791 3.27753 9.75209 3.81674C8.42506 4.35595 7.21928 5.14628 6.20361 6.14261C4.15237 8.15479 3 10.8839 3 13.7295C3 16.5752 4.15237 19.3043 6.20361 21.3165C8.25485 23.3287 11.0369 24.4591 13.9378 24.4591C16.8387 24.4591 19.6208 23.3287 21.672 21.3165Z" stroke="#44CBEB" stroke-width="5" stroke-linecap="round" stroke-linejoin="round"/>
</svg>
