<svg width="23" height="24" viewBox="0 0 23 24" fill="none" xmlns="http://www.w3.org/2000/svg">
<path d="M8.22641 3.99581C9.68349 1.3324 10.4114 0 11.5004 0C12.5895 0 13.3174 1.3324 14.7745 3.99581L15.1506 4.68546C15.5646 5.44269 15.7729 5.82061 16.0949 6.07027C16.4169 6.31992 16.8187 6.41233 17.6237 6.59854L18.3543 6.76681C21.1832 7.41921 22.5983 7.74611 22.9339 8.84954C23.2707 9.95297 22.3061 11.1019 20.3769 13.4012L19.879 13.9943C19.3311 14.6481 19.0578 14.975 18.9333 15.3791C18.8115 15.7832 18.8521 16.2191 18.9347 17.0894L19.0104 17.8839C19.3027 20.9515 19.4474 22.4852 18.5667 23.1666C17.6859 23.8493 16.3614 23.2273 13.7138 21.9845L13.0279 21.6618C12.2757 21.3087 11.8996 21.1321 11.5004 21.1321C11.1013 21.1321 10.7252 21.3087 9.97166 21.6618L9.28709 21.9845C6.63945 23.2259 5.31496 23.8493 4.43422 23.1666C3.55347 22.4852 3.69959 20.9515 3.99046 17.8839L4.06623 17.0908C4.14875 16.2191 4.19069 15.7832 4.06623 15.3805C3.94446 14.975 3.66982 14.6495 3.1219 13.9957L2.62267 13.3998C0.694784 11.1019 -0.269839 9.95159 0.0656819 8.84816C0.403908 7.74473 1.8177 7.41921 4.64662 6.76681L5.37719 6.59854C6.18217 6.41233 6.58398 6.31992 6.90598 6.07027C7.22932 5.82199 7.43631 5.44269 7.8503 4.68546L8.22641 3.99581Z" fill="#FFC700"/>
</svg>
